<?xml version="1.0" encoding="UTF-8"?>
<svg xmlns="http://www.w3.org/2000/svg" width="35" height="35" viewBox="0 0 35 35" fill="none">
  <path d="M0 17.5C0 7.83502 7.83502 0 17.5 0C27.165 0 35 7.83502 35 17.5C35 27.165 27.165 35 17.5 35C7.83502 35 0 27.165 0 17.5Z" fill="#1D212E"></path>
  <path fill-rule="evenodd" clip-rule="evenodd" d="M13.4928 12.0305C13.4928 12.9682 12.787 13.7184 11.6538 13.7184H11.633C10.5418 13.7184 9.83643 12.9682 9.83643 12.0305C9.83643 11.073 10.5633 10.3438 11.6752 10.3438C12.787 10.3438 13.4717 11.073 13.4928 12.0305ZM13.2788 15.0512V24.8166H10.0287V15.0512H13.2788ZM24.9998 24.8166L25 19.2174C25 16.2179 23.3966 14.8219 21.2578 14.8219C19.5322 14.8219 18.7596 15.7698 18.3283 16.4347V15.0515H15.0777C15.1206 15.9678 15.0777 24.8169 15.0777 24.8169H18.3283V19.3631C18.3283 19.0712 18.3493 18.7801 18.4353 18.5711C18.6702 17.9881 19.205 17.3844 20.1029 17.3844C21.2795 17.3844 21.7498 18.2799 21.7498 19.5921V24.8166H24.9998Z" fill="white"></path>
</svg>
